<svg width="1788" height="562" viewBox="0 0 1788 562" fill="none" xmlns="http://www.w3.org/2000/svg">
<path d="M114.538 452.644C98.6516 452.644 82.9147 451.145 67.3277 448.147C51.7407 445.15 40.65 441.853 34.0555 438.256C25.9622 433.759 21.9156 427.015 21.9156 418.022V395.991C21.9156 384.9 26.7116 379.355 36.3036 379.355C38.1021 379.355 47.5442 382.052 64.63 387.448C81.7157 392.544 100.45 395.092 120.833 395.092C138.518 395.092 147.361 389.246 147.361 377.556C147.361 371.861 144.963 367.814 140.167 365.416C135.371 363.018 125.929 360.47 111.841 357.773L97.4526 355.075C72.8731 350.579 53.9888 343.235 40.7998 333.043C27.9106 322.852 21.466 307.265 21.466 286.282C21.466 258.406 30.7582 238.472 49.3427 226.482C68.227 214.192 92.3568 208.048 121.732 208.048C154.405 208.048 180.184 212.544 199.068 221.536C207.161 225.433 211.208 232.177 211.208 241.769V263.801C211.208 274.292 206.412 279.538 196.82 279.538C193.522 279.538 183.331 277.29 166.245 272.794C149.459 267.998 134.322 265.6 120.833 265.6C103.148 265.6 94.3052 270.695 94.3052 280.887C94.3052 285.983 96.5533 289.729 101.05 292.127C105.546 294.226 114.538 296.474 128.027 298.872L140.617 301.12C166.395 305.616 186.029 313.11 199.517 323.601C213.306 334.092 220.2 351.478 220.2 375.758C220.2 402.435 210.458 421.919 190.975 434.209C171.491 446.499 146.012 452.644 114.538 452.644Z" fill="#363636"/>
<path d="M431.468 418.922C407.188 442.302 376.764 453.992 340.194 453.992C303.624 453.992 273.2 442.302 248.92 418.922C224.64 395.541 212.5 366.016 212.5 330.346C212.5 294.376 224.64 264.85 248.92 241.769C273.2 218.389 303.624 206.699 340.194 206.699C376.764 206.699 407.188 218.389 431.468 241.769C455.748 264.85 467.888 294.376 467.888 330.346C467.888 366.016 455.748 395.541 431.468 418.922ZM300.177 373.06C310.069 383.851 323.408 389.246 340.194 389.246C356.98 389.246 370.319 383.851 380.211 373.06C390.102 361.969 395.048 347.731 395.048 330.346C395.048 312.96 390.102 298.872 380.211 288.081C370.319 276.99 356.98 271.445 340.194 271.445C323.408 271.445 310.069 276.99 300.177 288.081C290.286 298.872 285.34 312.96 285.34 330.346C285.34 347.731 290.286 361.969 300.177 373.06Z" fill="#363636"/>
<path d="M635.997 109.13C640.793 111.228 643.94 113.926 645.439 117.223C647.237 120.221 648.137 125.017 648.137 131.611V159.488C648.137 166.982 644.39 170.729 636.896 170.729C634.198 170.729 629.102 169.979 621.609 168.481C614.415 166.682 607.371 165.783 600.476 165.783C577.096 165.783 565.406 179.122 565.406 205.799V215.691H609.019C617.412 215.691 623.407 217.49 627.004 221.087C630.901 224.684 632.849 230.829 632.849 239.521V253.909C632.849 262.602 630.901 268.747 627.004 272.344C623.407 275.941 617.412 277.739 609.019 277.739H565.406V421.17C565.406 429.563 563.607 435.708 560.01 439.604C556.413 443.201 550.268 445 541.575 445H517.296C508.603 445 502.458 443.201 498.861 439.604C495.264 435.708 493.466 429.563 493.466 421.17V277.739H474.581C466.188 277.739 460.043 275.941 456.147 272.344C452.55 268.747 450.751 262.602 450.751 253.909V239.521C450.751 230.829 452.55 224.684 456.147 221.087C460.043 217.49 466.188 215.691 474.581 215.691H493.466V210.296C493.466 172.527 502.908 144.95 521.792 127.565C540.976 109.879 564.956 101.037 593.732 101.037C609.918 101.037 624.007 103.734 635.997 109.13Z" fill="#363636"/>
<path d="M796.003 381.603C803.197 381.603 806.794 385.799 806.794 394.192V420.72C806.794 427.914 805.745 433.16 803.647 436.457C801.848 439.754 797.502 442.752 790.608 445.45C780.117 449.646 766.328 451.744 749.242 451.744C689.892 451.744 660.216 419.521 660.216 355.075V277.739H641.332C632.939 277.739 626.794 275.941 622.898 272.344C619.301 268.747 617.502 262.602 617.502 253.909V239.521C617.502 230.829 619.301 224.684 622.898 221.087C626.794 217.49 632.939 215.691 641.332 215.691H660.216V181.07C660.216 172.677 662.015 166.682 665.612 163.085C669.209 159.188 675.354 157.24 684.047 157.24H708.326C717.019 157.24 723.164 159.188 726.761 163.085C730.358 166.682 732.157 172.677 732.157 181.07V215.691H778.018C786.411 215.691 792.406 217.49 796.003 221.087C799.9 224.684 801.848 230.829 801.848 239.521V253.909C801.848 262.602 799.9 268.747 796.003 272.344C792.406 275.941 786.411 277.739 778.018 277.739H732.157V346.532C732.157 361.22 734.704 371.561 739.8 377.556C745.196 383.251 753.888 386.099 765.878 386.099C771.873 386.099 777.868 385.35 783.863 383.851C790.158 382.352 794.205 381.603 796.003 381.603Z" fill="#363636"/>
<path d="M894.417 452.644C878.531 452.644 862.794 451.145 847.207 448.147C831.62 445.15 820.529 441.853 813.934 438.256C805.841 433.759 801.794 427.015 801.794 418.022V395.991C801.794 384.9 806.59 379.355 816.182 379.355C817.981 379.355 827.423 382.052 844.509 387.448C861.595 392.544 880.329 395.092 900.712 395.092C918.397 395.092 927.24 389.246 927.24 377.556C927.24 371.861 924.842 367.814 920.046 365.416C915.25 363.018 905.808 360.47 891.72 357.773L877.331 355.075C852.752 350.579 833.868 343.235 820.679 333.043C807.789 322.852 801.345 307.265 801.345 286.282C801.345 258.406 810.637 238.472 829.222 226.482C848.106 214.192 872.236 208.048 901.611 208.048C934.284 208.048 960.063 212.544 978.947 221.536C987.04 225.433 991.087 232.177 991.087 241.769V263.801C991.087 274.292 986.291 279.538 976.699 279.538C973.401 279.538 963.21 277.29 946.124 272.794C929.338 267.998 914.201 265.6 900.712 265.6C883.027 265.6 874.184 270.695 874.184 280.887C874.184 285.983 876.432 289.729 880.929 292.127C885.425 294.226 894.417 296.474 907.906 298.872L920.496 301.12C946.274 305.616 965.908 313.11 979.396 323.601C993.185 334.092 1000.08 351.478 1000.08 375.758C1000.08 402.435 990.337 421.919 970.854 434.209C951.37 446.499 925.891 452.644 894.417 452.644Z" fill="#363636"/>
<path d="M1472.53 418.922C1448.25 442.302 1417.83 453.992 1381.26 453.992C1344.69 453.992 1314.26 442.302 1289.98 418.922C1265.7 395.541 1253.56 366.016 1253.56 330.346C1253.56 294.376 1265.7 264.85 1289.98 241.769C1314.26 218.389 1344.69 206.699 1381.26 206.699C1417.83 206.699 1448.25 218.389 1472.53 241.769C1496.81 264.85 1508.95 294.376 1508.95 330.346C1508.95 366.016 1496.81 395.541 1472.53 418.922ZM1341.24 373.06C1351.13 383.851 1364.47 389.246 1381.26 389.246C1398.04 389.246 1411.38 383.851 1421.27 373.06C1431.16 361.969 1436.11 347.731 1436.11 330.346C1436.11 312.96 1431.16 298.872 1421.27 288.081C1411.38 276.99 1398.04 271.445 1381.26 271.445C1364.47 271.445 1351.13 276.99 1341.24 288.081C1331.35 298.872 1326.4 312.96 1326.4 330.346C1326.4 347.731 1331.35 361.969 1341.24 373.06Z" fill="#363636"/>
<path d="M1653.67 206.699C1688.74 206.699 1717.37 218.389 1739.55 241.769C1761.73 264.85 1772.82 294.376 1772.82 330.346C1772.82 365.416 1761.28 394.792 1738.2 418.472C1715.42 442.152 1686.94 453.992 1652.77 453.992C1627.89 453.992 1606.31 447.248 1588.03 433.759V541.22C1588.03 552.011 1583.53 557.406 1574.54 557.406C1559.85 557.406 1546.36 549.013 1534.07 532.227C1522.08 515.741 1516.09 494.159 1516.09 467.481V227.381C1516.09 216.59 1520.73 211.195 1530.02 211.195C1536.32 211.195 1543.36 213.893 1551.16 219.288C1558.95 224.384 1565.85 231.428 1571.84 240.421C1579.93 230.829 1591.32 222.885 1606.01 216.59C1620.7 209.996 1636.59 206.699 1653.67 206.699ZM1643.78 389.246C1659.67 389.246 1673.01 383.851 1683.8 373.06C1694.59 362.269 1699.98 348.031 1699.98 330.346C1699.98 312.96 1694.59 298.872 1683.8 288.081C1673.01 276.99 1659.67 271.445 1643.78 271.445C1627.89 271.445 1614.55 276.99 1603.76 288.081C1593.27 298.872 1588.03 312.96 1588.03 330.346C1588.03 348.031 1593.42 362.269 1604.21 373.06C1615 383.851 1628.19 389.246 1643.78 389.246Z" fill="#363636"/>
<path d="M1225.19 244.884C1243.57 266.081 1252.62 297.788 1252.62 339.754V426.081C1252.62 434.772 1250.74 440.921 1247 444.516C1243.25 448.111 1237.18 449.908 1228.79 449.908H1204.5C1196.11 449.908 1190.04 448.111 1186.29 444.516C1182.54 440.921 1180.67 434.772 1180.67 426.081V342.001C1180.67 320.716 1176.92 305.279 1169.43 295.689C1161.34 285.195 1149.2 279.951 1133.01 279.951C1116.82 279.951 1104.24 285.195 1095.24 295.689C1086.25 306.178 1081.76 321.467 1081.76 341.552V426.081C1081.76 434.476 1079.96 440.543 1076.36 444.291C1072.76 448.039 1066.62 449.914 1057.93 449.914H1033.65C1024.96 449.914 1018.81 448.039 1015.21 444.291C1011.61 440.543 1009.81 434.476 1009.81 426.081V367.56C1009.81 315.226 1112.41 215.193 1165.14 213.494C1185 212.853 1205.04 221.654 1225.18 244.884H1225.19Z" fill="#363636"/>
<path fill-rule="evenodd" clip-rule="evenodd" d="M1177.86 195.566C1153.84 187.537 1118.38 192.141 1081.76 213.688V106.219C1081.76 95.4291 1077.26 90.0312 1068.27 90.0312C1053.58 90.0312 1040.17 98.3499 1028.03 114.987C1015.89 131.625 1009.82 153.282 1009.82 179.958C1009.82 223.404 1007.25 314.564 1009.82 351.944C1011.4 329.448 1035.57 284.452 1070.98 250.914C1101.65 221.875 1155.48 201.254 1175.33 196.086C1176.23 195.851 1177.07 195.735 1177.86 195.566V195.566Z" fill="#482FAF"/>
</svg>
