<?xml version="1.0" encoding="UTF-8"?>
<svg xmlns="http://www.w3.org/2000/svg" xmlns:xlink="http://www.w3.org/1999/xlink" width="126px" height="40px" viewBox="0 0 127 40" version="1.1">
<g id="surface1">
<path style=" stroke:none;fill-rule:nonzero;fill:rgb(21.176471%,21.176471%,21.176471%);fill-opacity:1;" d="M 8.136719 32.214844 C 7.007812 32.214844 5.890625 32.109375 4.78125 31.898438 C 3.675781 31.683594 2.886719 31.449219 2.417969 31.191406 C 1.84375 30.871094 1.558594 30.390625 1.558594 29.753906 L 1.558594 28.183594 C 1.558594 27.394531 1.898438 27 2.578125 27 C 2.707031 27 3.378906 27.191406 4.589844 27.578125 C 5.804688 27.9375 7.136719 28.121094 8.582031 28.121094 C 9.839844 28.121094 10.46875 27.703125 10.46875 26.871094 C 10.46875 26.46875 10.296875 26.179688 9.957031 26.007812 C 9.617188 25.835938 8.945312 25.65625 7.945312 25.464844 L 6.921875 25.273438 C 5.175781 24.953125 3.835938 24.429688 2.898438 23.703125 C 1.984375 22.980469 1.523438 21.871094 1.523438 20.375 C 1.523438 18.390625 2.183594 16.972656 3.503906 16.121094 C 4.847656 15.246094 6.558594 14.808594 8.648438 14.808594 C 10.96875 14.808594 12.796875 15.128906 14.140625 15.769531 C 14.714844 16.046875 15 16.523438 15 17.207031 L 15 18.777344 C 15 19.523438 14.660156 19.894531 13.980469 19.894531 C 13.746094 19.894531 13.023438 19.734375 11.808594 19.414062 C 10.617188 19.074219 9.539062 18.902344 8.582031 18.902344 C 7.328125 18.902344 6.699219 19.265625 6.699219 19.992188 C 6.699219 20.355469 6.859375 20.621094 7.175781 20.792969 C 7.496094 20.941406 8.136719 21.101562 9.09375 21.273438 L 9.988281 21.433594 C 11.820312 21.753906 13.214844 22.285156 14.171875 23.03125 C 15.152344 23.777344 15.640625 25.015625 15.640625 26.746094 C 15.640625 28.644531 14.949219 30.03125 13.566406 30.90625 C 12.179688 31.777344 10.371094 32.214844 8.136719 32.214844 Z M 8.136719 32.214844 "/>
<path style=" stroke:none;fill-rule:nonzero;fill:rgb(21.176471%,21.176471%,21.176471%);fill-opacity:1;" d="M 30.648438 29.816406 C 28.921875 31.480469 26.761719 32.3125 24.164062 32.3125 C 21.566406 32.3125 19.40625 31.480469 17.679688 29.816406 C 15.957031 28.152344 15.09375 26.050781 15.09375 23.511719 C 15.09375 20.953125 15.957031 18.851562 17.679688 17.207031 C 19.40625 15.542969 21.566406 14.710938 24.164062 14.710938 C 26.761719 14.710938 28.921875 15.542969 30.648438 17.207031 C 32.371094 18.851562 33.234375 20.953125 33.234375 23.511719 C 33.234375 26.050781 32.371094 28.152344 30.648438 29.816406 Z M 21.320312 26.550781 C 22.023438 27.320312 22.972656 27.703125 24.164062 27.703125 C 25.355469 27.703125 26.304688 27.320312 27.007812 26.550781 C 27.707031 25.761719 28.058594 24.75 28.058594 23.511719 C 28.058594 22.273438 27.707031 21.273438 27.007812 20.503906 C 26.304688 19.714844 25.355469 19.320312 24.164062 19.320312 C 22.972656 19.320312 22.023438 19.714844 21.320312 20.503906 C 20.617188 21.273438 20.265625 22.273438 20.265625 23.511719 C 20.265625 24.75 20.617188 25.761719 21.320312 26.550781 Z M 21.320312 26.550781 "/>
<path style=" stroke:none;fill-rule:nonzero;fill:rgb(21.176471%,21.176471%,21.176471%);fill-opacity:1;" d="M 45.175781 7.765625 C 45.515625 7.917969 45.738281 8.109375 45.84375 8.34375 C 45.972656 8.558594 46.035156 8.898438 46.035156 9.367188 L 46.035156 11.351562 C 46.035156 11.886719 45.769531 12.152344 45.238281 12.152344 C 45.046875 12.152344 44.683594 12.097656 44.152344 11.992188 C 43.640625 11.863281 43.140625 11.800781 42.652344 11.800781 C 40.992188 11.800781 40.160156 12.75 40.160156 14.648438 L 40.160156 15.351562 L 43.257812 15.351562 C 43.855469 15.351562 44.28125 15.480469 44.535156 15.734375 C 44.8125 15.992188 44.949219 16.429688 44.949219 17.046875 L 44.949219 18.070312 C 44.949219 18.691406 44.8125 19.128906 44.535156 19.382812 C 44.28125 19.640625 43.855469 19.769531 43.257812 19.769531 L 40.160156 19.769531 L 40.160156 29.976562 C 40.160156 30.574219 40.03125 31.011719 39.777344 31.289062 C 39.523438 31.542969 39.085938 31.671875 38.46875 31.671875 L 36.742188 31.671875 C 36.125 31.671875 35.6875 31.542969 35.433594 31.289062 C 35.179688 31.011719 35.050781 30.574219 35.050781 29.976562 L 35.050781 19.769531 L 33.710938 19.769531 C 33.113281 19.769531 32.675781 19.640625 32.398438 19.382812 C 32.144531 19.128906 32.015625 18.691406 32.015625 18.070312 L 32.015625 17.046875 C 32.015625 16.429688 32.144531 15.992188 32.398438 15.734375 C 32.675781 15.480469 33.113281 15.351562 33.710938 15.351562 L 35.050781 15.351562 L 35.050781 14.96875 C 35.050781 12.28125 35.722656 10.316406 37.0625 9.078125 C 38.425781 7.820312 40.128906 7.191406 42.171875 7.191406 C 43.320312 7.191406 44.324219 7.382812 45.175781 7.765625 Z M 45.175781 7.765625 "/>
<path style=" stroke:none;fill-rule:nonzero;fill:rgb(21.176471%,21.176471%,21.176471%);fill-opacity:1;" d="M 56.539062 27.160156 C 57.050781 27.160156 57.304688 27.460938 57.304688 28.054688 L 57.304688 29.945312 C 57.304688 30.457031 57.230469 30.828125 57.082031 31.066406 C 56.953125 31.300781 56.644531 31.511719 56.15625 31.703125 C 55.410156 32.003906 54.429688 32.152344 53.21875 32.152344 C 49.003906 32.152344 46.894531 29.859375 46.894531 25.273438 L 46.894531 19.769531 L 45.554688 19.769531 C 44.957031 19.769531 44.519531 19.640625 44.242188 19.382812 C 43.988281 19.128906 43.859375 18.691406 43.859375 18.070312 L 43.859375 17.046875 C 43.859375 16.429688 43.988281 15.992188 44.242188 15.734375 C 44.519531 15.480469 44.957031 15.351562 45.554688 15.351562 L 46.894531 15.351562 L 46.894531 12.886719 C 46.894531 12.289062 47.023438 11.863281 47.277344 11.609375 C 47.535156 11.332031 47.96875 11.191406 48.585938 11.191406 L 50.3125 11.191406 C 50.929688 11.191406 51.367188 11.332031 51.621094 11.609375 C 51.875 11.863281 52.003906 12.289062 52.003906 12.886719 L 52.003906 15.351562 L 55.261719 15.351562 C 55.859375 15.351562 56.285156 15.480469 56.539062 15.734375 C 56.816406 15.992188 56.953125 16.429688 56.953125 17.046875 L 56.953125 18.070312 C 56.953125 18.691406 56.816406 19.128906 56.539062 19.382812 C 56.285156 19.640625 55.859375 19.769531 55.261719 19.769531 L 52.003906 19.769531 L 52.003906 24.664062 C 52.003906 25.710938 52.183594 26.445312 52.546875 26.871094 C 52.929688 27.277344 53.546875 27.480469 54.398438 27.480469 C 54.824219 27.480469 55.25 27.425781 55.675781 27.320312 C 56.125 27.214844 56.410156 27.160156 56.539062 27.160156 Z M 56.539062 27.160156 "/>
<path style=" stroke:none;fill-rule:nonzero;fill:rgb(21.176471%,21.176471%,21.176471%);fill-opacity:1;" d="M 63.53125 32.214844 C 62.402344 32.214844 61.285156 32.109375 60.175781 31.898438 C 59.070312 31.683594 58.28125 31.449219 57.8125 31.191406 C 57.238281 30.871094 56.949219 30.390625 56.949219 29.753906 L 56.949219 28.183594 C 56.949219 27.394531 57.292969 27 57.972656 27 C 58.101562 27 58.769531 27.191406 59.984375 27.578125 C 61.199219 27.9375 62.527344 28.121094 63.976562 28.121094 C 65.234375 28.121094 65.859375 27.703125 65.859375 26.871094 C 65.859375 26.46875 65.691406 26.179688 65.351562 26.007812 C 65.007812 25.835938 64.339844 25.65625 63.339844 25.464844 L 62.316406 25.273438 C 60.570312 24.953125 59.230469 24.429688 58.292969 23.703125 C 57.375 22.980469 56.917969 21.871094 56.917969 20.375 C 56.917969 18.390625 57.578125 16.972656 58.898438 16.121094 C 60.238281 15.246094 61.953125 14.808594 64.039062 14.808594 C 66.363281 14.808594 68.191406 15.128906 69.535156 15.769531 C 70.109375 16.046875 70.394531 16.523438 70.394531 17.207031 L 70.394531 18.777344 C 70.394531 19.523438 70.054688 19.894531 69.375 19.894531 C 69.140625 19.894531 68.414062 19.734375 67.203125 19.414062 C 66.011719 19.074219 64.933594 18.902344 63.976562 18.902344 C 62.71875 18.902344 62.09375 19.265625 62.09375 19.992188 C 62.09375 20.355469 62.253906 20.621094 62.570312 20.792969 C 62.890625 20.941406 63.53125 21.101562 64.488281 21.273438 L 65.382812 21.433594 C 67.214844 21.753906 68.609375 22.285156 69.566406 23.03125 C 70.546875 23.777344 71.035156 25.015625 71.035156 26.746094 C 71.035156 28.644531 70.34375 30.03125 68.957031 30.90625 C 67.574219 31.777344 65.765625 32.214844 63.53125 32.214844 Z M 63.53125 32.214844 "/>
<path style=" stroke:none;fill-rule:nonzero;fill:rgb(21.176471%,21.176471%,21.176471%);fill-opacity:1;" d="M 104.59375 29.816406 C 102.867188 31.480469 100.707031 32.3125 98.109375 32.3125 C 95.511719 32.3125 93.351562 31.480469 91.625 29.816406 C 89.902344 28.152344 89.039062 26.050781 89.039062 23.511719 C 89.039062 20.953125 89.902344 18.851562 91.625 17.207031 C 93.351562 15.542969 95.511719 14.710938 98.109375 14.710938 C 100.707031 14.710938 102.867188 15.542969 104.59375 17.207031 C 106.316406 18.851562 107.179688 20.953125 107.179688 23.511719 C 107.179688 26.050781 106.316406 28.152344 104.59375 29.816406 Z M 95.265625 26.550781 C 95.96875 27.320312 96.917969 27.703125 98.109375 27.703125 C 99.300781 27.703125 100.25 27.320312 100.953125 26.550781 C 101.652344 25.761719 102.003906 24.75 102.003906 23.511719 C 102.003906 22.273438 101.652344 21.273438 100.953125 20.503906 C 100.25 19.714844 99.300781 19.320312 98.109375 19.320312 C 96.917969 19.320312 95.96875 19.714844 95.265625 20.503906 C 94.566406 21.273438 94.214844 22.273438 94.214844 23.511719 C 94.214844 24.75 94.566406 25.761719 95.265625 26.550781 Z M 95.265625 26.550781 "/>
<path style=" stroke:none;fill-rule:nonzero;fill:rgb(21.176471%,21.176471%,21.176471%);fill-opacity:1;" d="M 117.457031 14.710938 C 119.949219 14.710938 121.984375 15.542969 123.558594 17.207031 C 125.132812 18.851562 125.921875 20.953125 125.921875 23.511719 C 125.921875 26.007812 125.101562 28.097656 123.460938 29.785156 C 121.84375 31.46875 119.820312 32.3125 117.394531 32.3125 C 115.628906 32.3125 114.09375 31.832031 112.796875 30.871094 L 112.796875 38.519531 C 112.796875 39.289062 112.476562 39.671875 111.839844 39.671875 C 110.792969 39.671875 109.835938 39.074219 108.964844 37.882812 C 108.113281 36.707031 107.6875 35.171875 107.6875 33.273438 L 107.6875 16.183594 C 107.6875 15.414062 108.015625 15.03125 108.675781 15.03125 C 109.125 15.03125 109.625 15.222656 110.175781 15.609375 C 110.730469 15.96875 111.222656 16.472656 111.644531 17.113281 C 112.222656 16.429688 113.03125 15.863281 114.074219 15.414062 C 115.117188 14.945312 116.246094 14.710938 117.457031 14.710938 Z M 116.757812 27.703125 C 117.886719 27.703125 118.832031 27.320312 119.597656 26.550781 C 120.363281 25.785156 120.746094 24.769531 120.746094 23.511719 C 120.746094 22.273438 120.363281 21.273438 119.597656 20.503906 C 118.832031 19.714844 117.886719 19.320312 116.757812 19.320312 C 115.628906 19.320312 114.679688 19.714844 113.914062 20.503906 C 113.167969 21.273438 112.796875 22.273438 112.796875 23.511719 C 112.796875 24.769531 113.179688 25.785156 113.945312 26.550781 C 114.710938 27.320312 115.648438 27.703125 116.757812 27.703125 Z M 116.757812 27.703125 "/>
<path style=" stroke:none;fill-rule:nonzero;fill:rgb(21.176471%,21.176471%,21.176471%);fill-opacity:1;" d="M 87.023438 17.429688 C 88.328125 18.9375 88.972656 21.195312 88.972656 24.183594 L 88.972656 30.324219 C 88.972656 30.945312 88.839844 31.382812 88.574219 31.636719 C 88.308594 31.894531 87.875 32.023438 87.28125 32.023438 L 85.554688 32.023438 C 84.957031 32.023438 84.527344 31.894531 84.261719 31.636719 C 83.996094 31.382812 83.863281 30.945312 83.863281 30.324219 L 83.863281 24.339844 C 83.863281 22.828125 83.59375 21.726562 83.0625 21.046875 C 82.488281 20.296875 81.625 19.925781 80.476562 19.925781 C 79.328125 19.925781 78.433594 20.296875 77.792969 21.046875 C 77.15625 21.792969 76.835938 22.878906 76.835938 24.308594 L 76.835938 30.324219 C 76.835938 30.921875 76.707031 31.355469 76.453125 31.621094 C 76.195312 31.890625 75.761719 32.023438 75.144531 32.023438 L 73.417969 32.023438 C 72.800781 32.023438 72.363281 31.890625 72.109375 31.621094 C 71.855469 31.355469 71.726562 30.921875 71.726562 30.324219 L 71.726562 26.160156 C 71.726562 22.4375 79.011719 15.316406 82.757812 15.195312 C 84.167969 15.148438 85.59375 15.777344 87.023438 17.429688 Z M 87.023438 17.429688 "/>
<path style=" stroke:none;fill-rule:evenodd;fill:rgb(28.235294%,18.431373%,68.627451%);fill-opacity:1;" d="M 83.664062 13.917969 C 81.957031 13.347656 79.4375 13.675781 76.835938 15.210938 L 76.835938 7.558594 C 76.835938 6.792969 76.515625 6.40625 75.878906 6.40625 C 74.835938 6.40625 73.882812 7 73.019531 8.183594 C 72.15625 9.367188 71.726562 10.910156 71.726562 12.808594 C 71.726562 15.902344 71.542969 22.390625 71.726562 25.050781 C 71.839844 23.449219 73.554688 20.246094 76.070312 17.859375 C 78.25 15.792969 82.074219 14.324219 83.484375 13.957031 C 83.546875 13.941406 83.605469 13.929688 83.664062 13.917969 Z M 83.664062 13.917969 "/>
</g>
</svg>
